<svg id="visual" viewBox="0 0 900 900" width="900" height="900" xmlns="http://www.w3.org/2000/svg" xmlns:xlink="http://www.w3.org/1999/xlink" version="1.1"><g><g transform="translate(781 386)"><path d="M31.7 -41.5C38.4 -32.2 39.3 -19.6 42 -7C44.8 5.7 49.4 18.5 45.3 26.8C41.3 35.2 28.5 39.2 15.3 45.6C2 52 -11.7 60.8 -21.9 58.1C-32.2 55.3 -39.1 40.9 -43.6 27.7C-48.2 14.6 -50.5 2.6 -50.6 -11C-50.7 -24.7 -48.6 -40.1 -39.8 -49C-31 -58 -15.5 -60.5 -1.5 -58.7C12.5 -56.9 25 -50.8 31.7 -41.5Z" stroke="#00ba7c" fill="none" stroke-width="16"></path></g><g transform="translate(472 275)"><path d="M22.1 -25.5C28.5 -21 33.5 -13.9 37.7 -4.5C42 4.9 45.6 16.6 41.5 24.3C37.5 31.9 25.9 35.5 15.5 36.6C5.2 37.8 -3.8 36.5 -12.1 33.5C-20.4 30.4 -28 25.4 -35.5 17.9C-42.9 10.3 -50.3 0.1 -48.7 -8.4C-47 -17 -36.3 -23.7 -26.7 -27.7C-17.1 -31.7 -8.5 -32.8 -0.3 -32.4C7.8 -32 15.7 -30 22.1 -25.5Z" stroke="#00ba7c" fill="none" stroke-width="16"></path></g><g transform="translate(260 632)"><path d="M22.6 -27.1C31.2 -19.6 41.6 -14.4 44.3 -6.7C47 1 41.9 11.1 36.1 20.5C30.2 29.8 23.7 38.3 15.5 40.5C7.3 42.6 -2.6 38.3 -13.1 34.9C-23.7 31.6 -35 29.1 -41.9 21.9C-48.8 14.7 -51.3 2.6 -49.5 -8.9C-47.7 -20.3 -41.4 -31.2 -32.5 -38.6C-23.5 -46.1 -11.7 -50.2 -2.4 -47.3C6.9 -44.5 13.9 -34.6 22.6 -27.1Z" stroke="#00ba7c" fill="none" stroke-width="16"></path></g><g transform="translate(417 514)"><path d="M33.4 -41.2C41.2 -33.3 44.1 -20.8 47 -7.7C50 5.3 53.1 18.9 49.3 31.2C45.5 43.5 34.7 54.6 22.5 56.9C10.3 59.2 -3.3 52.9 -15.4 46.6C-27.4 40.3 -38 34.2 -41.9 25.2C-45.8 16.3 -43.1 4.6 -42.2 -8.7C-41.4 -22 -42.4 -36.9 -35.7 -45.1C-29 -53.3 -14.5 -54.7 -0.9 -53.7C12.8 -52.7 25.6 -49.2 33.4 -41.2Z" stroke="#00ba7c" fill="none" stroke-width="16"></path></g><g transform="translate(720 770)"><path d="M24.2 -29.5C31.2 -22.9 36.7 -15.2 38.2 -6.7C39.7 1.8 37.4 11 33.6 21.1C29.8 31.3 24.6 42.4 16 46.7C7.4 51 -4.7 48.6 -13.2 42.7C-21.6 36.8 -26.4 27.4 -28.6 18.8C-30.8 10.2 -30.4 2.5 -29.4 -5.6C-28.5 -13.7 -27 -22.1 -22 -29C-17.1 -35.9 -8.5 -41.2 0 -41.3C8.6 -41.3 17.2 -36 24.2 -29.5Z" stroke="#00ba7c" fill="none" stroke-width="16"></path></g><g transform="translate(280 149)"><path d="M26.6 -36.2C32.9 -26.4 35.4 -16.5 36.9 -6.7C38.4 3.1 38.9 12.9 36 23.5C33.1 34 26.9 45.4 17 50.6C7.2 55.8 -6.2 55 -18 50.3C-29.8 45.7 -39.9 37.3 -43.5 27C-47.2 16.8 -44.4 4.7 -40.9 -5.8C-37.3 -16.3 -33 -25.2 -26.1 -35C-19.1 -44.8 -9.6 -55.4 0.3 -55.7C10.1 -56.1 20.2 -46.1 26.6 -36.2Z" stroke="#00ba7c" fill="none" stroke-width="16"></path></g><g transform="translate(639 255)"><path d="M24.2 -29C31.1 -23 36.4 -15.2 36.5 -7.5C36.6 0.2 31.5 7.7 27.9 18.3C24.4 28.8 22.4 42.4 15.1 47.9C7.8 53.3 -4.8 50.5 -16.5 46C-28.2 41.4 -39.1 35.1 -44.8 25.7C-50.5 16.2 -51.1 3.6 -47.7 -7.1C-44.3 -17.8 -36.9 -26.5 -28.3 -32.3C-19.7 -38.1 -9.9 -41 -0.6 -40.2C8.6 -39.5 17.2 -35.1 24.2 -29Z" stroke="#00ba7c" fill="none" stroke-width="16"></path></g><g transform="translate(489 680)"><path d="M36.5 -38.4C48 -33.9 58.5 -23 58 -12.2C57.5 -1.5 46 9.2 38 20.9C30 32.5 25.5 45.1 16.3 51.1C7.2 57.1 -6.6 56.6 -20.9 53.2C-35.2 49.8 -50 43.6 -53.5 33.1C-57 22.5 -49.2 7.6 -46.1 -7.7C-42.9 -23.1 -44.4 -38.9 -37.5 -44.2C-30.6 -49.6 -15.3 -44.5 -1.4 -42.9C12.5 -41.2 25 -43 36.5 -38.4Z" stroke="#00ba7c" fill="none" stroke-width="16"></path></g><g transform="translate(257 407)"><path d="M20.4 -25.4C25 -20.5 26.1 -12.7 25.5 -6C24.9 0.7 22.6 6.2 20.4 13.7C18.3 21.2 16.5 30.7 11.2 33.9C6 37.2 -2.7 34.2 -10.9 30.9C-19.1 27.5 -26.9 23.7 -29.3 17.8C-31.8 11.8 -29 3.6 -25.8 -2.8C-22.6 -9.2 -18.9 -13.7 -14.6 -18.6C-10.2 -23.5 -5.1 -28.7 1.4 -30.4C7.9 -32.1 15.9 -30.2 20.4 -25.4Z" stroke="#00ba7c" fill="none" stroke-width="16"></path></g><g transform="translate(286 803)"><path d="M28 -34.3C36.2 -26.5 42.7 -17.6 44.1 -8C45.4 1.5 41.6 11.6 36.7 22.1C31.7 32.6 25.8 43.4 16.2 48.7C6.7 54 -6.4 53.7 -16.9 48.8C-27.3 43.9 -35.2 34.4 -41.7 23.8C-48.1 13.2 -53.2 1.4 -51.3 -9C-49.4 -19.4 -40.5 -28.6 -30.8 -36.1C-21.1 -43.7 -10.6 -49.7 -0.3 -49.3C9.9 -48.9 19.8 -42.1 28 -34.3Z" stroke="#00ba7c" fill="none" stroke-width="16"></path></g><g transform="translate(706 602)"><path d="M22.5 -25.9C29 -21.3 34 -14.1 36.2 -5.8C38.4 2.5 37.6 11.9 33.4 19.4C29.3 27 21.6 32.6 13.5 34.5C5.3 36.4 -3.3 34.5 -11.1 31.3C-19 28.1 -26.1 23.7 -28.7 17.4C-31.4 11.2 -29.5 3.1 -27.5 -4.2C-25.4 -11.6 -23.2 -18.3 -18.6 -23.2C-14 -28.1 -7 -31.3 0.5 -31.9C8 -32.5 16 -30.5 22.5 -25.9Z" stroke="#00ba7c" fill="none" stroke-width="16"></path></g><g transform="translate(93 100)"><path d="M24.2 -25.4C32.8 -21.6 42.3 -15.4 46.6 -6C50.9 3.4 50.1 16 44.4 25.4C38.7 34.9 28 41.3 17.7 42.3C7.4 43.3 -2.6 39 -11.8 34.6C-21 30.3 -29.4 26.1 -32.2 19.4C-35.1 12.8 -32.4 3.8 -30.7 -5.3C-29 -14.5 -28.3 -23.7 -23.4 -28.1C-18.5 -32.5 -9.2 -32 -0.7 -31.1C7.8 -30.3 15.6 -29.1 24.2 -25.4Z" stroke="#00ba7c" fill="none" stroke-width="16"></path></g><g transform="translate(519 121)"><path d="M35.7 -42.2C43.1 -36.3 43.8 -22.1 42 -10.6C40.3 0.9 36.1 9.7 31 17.2C25.8 24.8 19.7 31.1 10.7 38.3C1.6 45.5 -10.4 53.5 -21.1 52.1C-31.7 50.7 -41.1 39.9 -46.2 28.1C-51.2 16.3 -52 3.5 -49.3 -8.2C-46.6 -19.8 -40.4 -30.3 -31.6 -36C-22.8 -41.6 -11.4 -42.5 1.4 -44.1C14.1 -45.7 28.3 -48.2 35.7 -42.2Z" stroke="#00ba7c" fill="none" stroke-width="16"></path></g><g transform="translate(557 428)"><path d="M24.9 -32.4C29.1 -26.1 27.3 -15.3 27.6 -6C28 3.3 30.3 11.1 27.9 16.8C25.4 22.5 18.2 26.2 9.9 30.7C1.7 35.2 -7.5 40.5 -13.6 38C-19.8 35.6 -22.9 25.3 -25.9 16.6C-28.9 7.9 -31.9 0.9 -31 -5.7C-30.1 -12.2 -25.3 -18.3 -19.5 -24.4C-13.7 -30.5 -6.8 -36.6 1.7 -38.7C10.3 -40.7 20.6 -38.8 24.9 -32.4Z" stroke="#00ba7c" fill="none" stroke-width="16"></path></g><g transform="translate(807 183)"><path d="M27.5 -35.5C35.3 -26.3 40.9 -17.2 44.7 -6.3C48.5 4.6 50.4 17.4 46.7 30.1C43.1 42.9 34 55.5 23.1 56.5C12.2 57.4 -0.4 46.5 -13.4 40.3C-26.5 34.1 -40 32.5 -44.8 25.3C-49.7 18.1 -45.9 5.3 -43.8 -7.9C-41.7 -21.2 -41.3 -34.9 -34.3 -44.2C-27.2 -53.6 -13.6 -58.5 -1.9 -56.2C9.9 -54 19.8 -44.7 27.5 -35.5Z" stroke="#00ba7c" fill="none" stroke-width="16"></path></g><g transform="translate(148 280)"><path d="M30.3 -32.1C41.5 -26.6 54.5 -19.3 56.7 -9.6C59 0.2 50.5 12.2 42.3 22.6C34.1 33 26.3 41.8 16.6 45.1C6.9 48.4 -4.6 46.3 -13.9 41.5C-23.3 36.7 -30.5 29.2 -39.5 19.8C-48.4 10.4 -59.2 -0.9 -59.2 -12.2C-59.3 -23.4 -48.8 -34.6 -37.2 -40C-25.5 -45.4 -12.8 -45.2 -1.6 -43.3C9.5 -41.3 19 -37.7 30.3 -32.1Z" stroke="#00ba7c" fill="none" stroke-width="16"></path></g><g transform="translate(102 788)"><path d="M25 -33.6C29.7 -25.9 28.8 -15.4 30 -5.8C31.1 3.9 34.3 12.8 31.3 18.2C28.3 23.6 19.1 25.5 10.6 28.1C2.1 30.8 -5.7 34 -11.4 31.8C-17.1 29.5 -20.6 21.7 -23.2 14.6C-25.8 7.5 -27.6 1.2 -26.9 -5.1C-26.3 -11.5 -23.2 -17.8 -18.3 -25.4C-13.5 -33 -6.7 -42 1.7 -44.1C10.2 -46.2 20.4 -41.3 25 -33.6Z" stroke="#00ba7c" fill="none" stroke-width="16"></path></g><g transform="translate(80 512)"><path d="M19.5 -26.5C24 -19.5 25.5 -12.1 27.6 -4.3C29.6 3.5 32.2 11.8 30.2 19.4C28.2 27 21.5 34 14.1 35.1C6.7 36.2 -1.6 31.5 -9 27.6C-16.5 23.7 -23.2 20.5 -28.8 14.7C-34.4 9 -38.8 0.7 -38.4 -7.7C-38 -16.1 -32.9 -24.5 -25.7 -31.1C-18.4 -37.7 -9.2 -42.5 -0.9 -41.4C7.5 -40.4 15 -33.6 19.5 -26.5Z" stroke="#00ba7c" fill="none" stroke-width="16"></path></g><g transform="translate(570 822)"><path d="M19.5 -24.8C25.1 -18.6 29.2 -12.3 32 -4.4C34.8 3.4 36.4 12.6 32.5 18.2C28.6 23.8 19.3 25.8 11.3 27C3.2 28.2 -3.7 28.7 -8.9 26.1C-14.1 23.5 -17.6 17.8 -20.3 12.2C-23 6.6 -24.8 0.9 -25 -5.5C-25.1 -11.9 -23.6 -19.2 -19.2 -25.5C-14.8 -31.8 -7.4 -37.3 -0.2 -37.1C7 -36.8 14 -30.9 19.5 -24.8Z" stroke="#00ba7c" fill="none" stroke-width="16"></path></g></g></svg>