<svg id="visual" viewBox="0 0 100 100" width="100" height="100" xmlns="http://www.w3.org/2000/svg" xmlns:xlink="http://www.w3.org/1999/xlink" version="1.1"><g><g transform="translate(56 55)"><path d="M19.6 -22C23 -20.5 21.6 -12 20.8 -5.4C19.9 1.3 19.5 6.2 18.4 12.9C17.2 19.7 15.4 28.4 11.2 29.2C7.1 30 0.6 22.9 -4.5 18.4C-9.6 13.9 -13.5 12 -18.4 8.3C-23.4 4.6 -29.4 -0.8 -28.7 -5C-27.9 -9.2 -20.3 -12.2 -14.4 -13.3C-8.5 -14.3 -4.3 -13.5 1.9 -15.8C8.1 -18 16.2 -23.5 19.6 -22Z" stroke="#53b781" fill="none" stroke-width="5"></path></g></g></svg>