<svg id="visual" viewBox="0 0 100 100" width="100" height="100" xmlns="http://www.w3.org/2000/svg" xmlns:xlink="http://www.w3.org/1999/xlink" version="1.1"><g><g transform="translate(52 53)"><path d="M13.9 -15.4C18.9 -12.5 24.3 -8.8 24.8 -4.6C25.3 -0.3 20.9 4.6 17.6 9.8C14.2 15 11.8 20.5 8.5 20.5C5.1 20.5 0.8 15.1 -3.9 12.6C-8.7 10.1 -13.8 10.5 -18 8.1C-22.2 5.6 -25.5 0.3 -24.3 -3.9C-23.2 -8.2 -17.6 -11.3 -12.8 -14.2C-8.1 -17.2 -4 -19.9 0.2 -20.2C4.5 -20.5 9 -18.3 13.9 -15.4Z" stroke="#53b781" fill="none" stroke-width="9"></path></g></g></svg>