<svg id="visual" viewBox="0 0 100 100" width="100" height="100" xmlns="http://www.w3.org/2000/svg" xmlns:xlink="http://www.w3.org/1999/xlink" version="1.1"><g transform="translate(47.64817942949888 44.7660550056456)"><path d="M17.2 -24.7C23.4 -26.2 30.3 -23.9 33.1 -19.1C35.8 -14.3 34.4 -7.2 35.4 0.6C36.4 8.3 39.9 16.7 35.6 18.8C31.4 21 19.4 17 12.2 19.7C5 22.3 2.5 31.7 -1.7 34.6C-5.8 37.4 -11.7 33.9 -18 30.7C-24.4 27.5 -31.2 24.8 -32.7 19.7C-34.1 14.7 -30 7.3 -29 0.6C-28 -6.2 -30 -12.3 -26.9 -14.5C-23.9 -16.7 -15.7 -14.8 -10.3 -13.8C-5 -12.8 -2.5 -12.7 1.5 -15.3C5.5 -17.9 11 -23.2 17.2 -24.7" fill="#53b781"></path></g></svg>