<svg id="visual" viewBox="0 0 100 100" width="100" height="100" xmlns="http://www.w3.org/2000/svg" xmlns:xlink="http://www.w3.org/1999/xlink" version="1.1"><g transform="translate(49.76880409161999 54.26150365567381)"><path d="M22.6 -37.3C28.5 -35.7 32 -28.1 32.2 -20.9C32.3 -13.7 29.2 -6.8 27.4 -1C25.7 4.8 25.4 9.7 24.3 15.3C23.2 20.9 21.4 27.3 17.2 28.8C13 30.2 6.5 26.6 0.7 25.4C-5.2 24.3 -10.3 25.6 -12.1 22.8C-13.9 20 -12.4 13.1 -16.3 8.6C-20.2 4.2 -29.6 2.1 -31.4 -1C-33.2 -4.2 -27.4 -8.3 -24.6 -14.7C-21.8 -21 -21.9 -29.6 -18.3 -32.5C-14.7 -35.4 -7.3 -32.7 0.5 -33.6C8.3 -34.4 16.7 -38.9 22.6 -37.3" fill="#53b781"></path></g></svg>